<?xml version="1.0" standalone="no"?>
<!DOCTYPE svg PUBLIC "-//W3C//DTD SVG 20010904//EN"
 "http://www.w3.org/TR/2001/REC-SVG-20010904/DTD/svg10.dtd">
<svg version="1.0" xmlns="http://www.w3.org/2000/svg"
 width="1024.000000pt" height="1024.000000pt" viewBox="0 0 1024.000000 1024.000000"
 preserveAspectRatio="xMidYMid meet">

<g transform="translate(0.000000,1024.000000) scale(0.100000,-0.100000)"
fill="#000000" stroke="none">
<path d="M5015 8630 c-38 -10 -80 -19 -93 -19 l-23 -1 1 -205 c1 -183 6 -225
24 -196 3 4 38 18 77 31 92 29 180 25 257 -12 l52 -25 0 202 0 203 -85 21
c-101 25 -120 25 -210 1z"/>
<path d="M4423 8499 c-85 -33 -142 -115 -131 -190 2 -17 19 -32 62 -54 54 -27
69 -30 150 -30 73 1 101 5 143 24 84 37 85 46 12 81 -35 16 -72 30 -81 30 -26
0 -23 9 27 78 25 35 43 67 40 72 -11 18 -166 10 -222 -11z"/>
<path d="M5567 8511 c-17 -6 -14 -14 28 -69 26 -34 51 -65 57 -68 5 -4 -19
-18 -54 -33 -35 -14 -72 -32 -83 -38 -20 -13 -20 -13 0 -28 28 -22 140 -55
186 -55 61 0 140 20 188 47 43 25 43 26 38 70 -7 63 -51 122 -117 156 -47 23
-65 27 -139 26 -47 0 -94 -4 -104 -8z"/>
<path d="M3852 8354 c-120 -32 -182 -96 -182 -188 0 -44 33 -73 110 -97 105
-32 193 -22 291 34 21 12 39 25 39 28 0 9 -46 29 -123 54 l-67 22 19 24 c10
13 31 46 46 73 22 39 24 50 14 57 -20 13 -87 10 -147 -7z"/>
<path d="M6210 8351 c0 -13 16 -50 35 -82 19 -33 35 -61 35 -63 0 -2 -31 -13
-70 -25 -38 -12 -79 -30 -91 -40 -21 -17 -21 -17 59 -54 96 -44 155 -48 254
-17 84 26 123 65 114 113 -3 18 -19 54 -35 79 -40 63 -109 96 -219 105 -80 6
-82 5 -82 -16z"/>
<path d="M3242 8121 c-107 -37 -167 -132 -160 -253 l3 -53 113 -24 c103 -23
119 -24 174 -12 68 14 162 57 153 70 -6 11 -145 48 -213 57 l-53 7 34 36 c43
44 74 105 79 151 3 34 2 35 -37 37 -22 2 -64 -6 -93 -16z"/>
<path d="M6837 8133 c-7 -11 9 -87 24 -116 6 -11 29 -39 51 -63 l41 -44 -28 0
c-60 0 -248 -57 -239 -72 12 -20 116 -59 173 -64 41 -5 79 -1 139 15 45 11 90
21 101 21 23 0 31 19 31 74 0 102 -53 191 -137 231 -41 20 -148 32 -156 18z"/>
<path d="M4615 8093 c-11 -2 -72 -16 -135 -30 -228 -49 -552 -169 -770 -285
-52 -27 -158 -92 -235 -143 -552 -366 -955 -869 -1197 -1495 -170 -437 -227
-856 -183 -1335 47 -511 181 -880 487 -1344 l88 -133 -84 -142 c-46 -77 -125
-206 -175 -286 l-91 -145 453 -5 c248 -3 458 -9 465 -13 6 -5 49 -36 95 -71
250 -189 653 -387 942 -464 331 -89 526 -116 840 -116 318 1 528 31 835 120
324 93 702 283 955 477 l80 62 452 5 452 5 -76 120 c-95 150 -224 367 -252
422 l-21 42 74 108 c220 322 378 685 450 1033 41 202 56 363 56 615 1 310 -27
514 -107 795 -170 600 -557 1192 -1016 1555 -426 337 -863 544 -1337 635 -52
10 -99 15 -103 11 -4 -5 -7 -41 -5 -82 l3 -74 85 -17 c289 -59 659 -211 935
-383 507 -316 880 -742 1125 -1286 49 -108 131 -325 144 -381 l6 -28 -1074 0
-1075 0 -6 38 c-17 99 -65 171 -131 192 l-34 12 0 119 c0 136 -9 164 -65 199
-23 14 -35 29 -35 44 0 22 -100 421 -209 836 -32 124 -57 227 -55 229 2 2 40
-8 86 -22 45 -14 84 -25 85 -23 2 1 -7 50 -19 108 l-22 106 57 75 c31 41 57
76 57 79 0 2 -42 10 -94 18 l-93 13 -58 118 -59 118 -49 -107 c-27 -59 -53
-112 -58 -118 -5 -6 -50 -17 -99 -24 -50 -7 -90 -16 -90 -20 0 -4 14 -27 31
-51 16 -24 41 -60 54 -79 l23 -35 -23 -100 c-12 -55 -21 -101 -20 -103 2 -2
40 8 86 22 45 14 85 24 87 22 2 -2 -31 -136 -74 -298 -42 -161 -106 -405 -141
-543 -60 -237 -66 -252 -98 -280 -47 -43 -58 -69 -51 -126 4 -27 4 -77 0 -112
-6 -63 -7 -63 -52 -87 -58 -31 -99 -94 -108 -166 l-6 -54 -1079 0 c-650 0
-1079 4 -1079 9 0 39 124 361 192 494 360 720 958 1234 1733 1492 123 41 326
95 356 95 10 0 20 3 20 8 2 11 2 42 1 105 -2 58 -4 60 -47 50z m470 -369 c-25
-39 -43 -40 -81 -4 -18 19 -32 36 -29 38 2 3 30 10 62 16 54 11 58 11 61 -7 2
-10 -4 -29 -13 -43z m55 -844 c11 -102 28 -243 36 -315 9 -71 19 -154 22 -184
l5 -55 -28 22 c-30 24 -83 29 -116 11 -11 -5 -28 -24 -39 -41 l-18 -30 -16 30
c-9 17 -32 44 -52 61 l-37 30 104 412 104 411 7 -83 c4 -46 16 -167 28 -269z
m-261 -626 c16 -20 21 -41 21 -85 0 -32 4 -60 9 -63 5 -3 41 4 80 16 l71 23 0
50 c0 56 6 70 36 79 35 11 54 -14 61 -77 6 -57 6 -58 54 -82 47 -24 79 -57 79
-83 0 -8 -15 -1 -37 17 -84 67 -214 63 -296 -9 -44 -39 -44 -39 -63 -19 -10
11 -35 30 -56 41 l-38 22 0 91 c0 50 3 95 7 98 15 16 53 5 72 -19z m-81 -320
c12 -8 31 -33 42 -55 19 -37 23 -39 65 -39 l45 0 0 -47 c0 -27 -5 -65 -11 -86
-11 -40 -39 -61 -47 -36 -3 8 -22 31 -43 53 -33 32 -43 37 -66 32 -16 -4 -38
-18 -50 -32 -22 -24 -23 -34 -23 -179 0 -87 -5 -166 -11 -182 l-11 -28 -23 45
c-23 43 -24 54 -25 262 0 119 4 228 10 242 11 31 65 66 100 66 14 0 36 -7 48
-16z m-1635 -268 c9 -7 22 -28 28 -46 10 -27 9 -36 -8 -58 -11 -14 -35 -30
-54 -35 -41 -11 -506 -4 -533 8 -45 20 -50 100 -8 131 25 19 549 19 575 0z
m4406 -122 c26 -34 27 -68 1 -94 -26 -26 -60 -25 -94 1 -33 26 -34 62 -1 94
32 33 68 32 94 -1z m-614 -69 c32 -31 33 -78 3 -99 -74 -52 -157 36 -96 101
28 30 63 29 93 -2z m-4146 -166 c49 -17 77 -85 49 -121 -19 -24 -393 -37 -422
-15 -46 34 -10 130 53 140 60 9 290 6 320 -4z m1577 -91 c41 -67 56 -84 78
-86 25 -3 30 3 64 77 20 44 40 80 44 78 4 -1 29 -37 57 -79 68 -104 79 -103
133 7 23 47 45 85 48 85 3 -1 27 -37 53 -81 27 -44 55 -83 63 -86 20 -7 37 17
71 99 15 38 30 68 33 68 3 0 21 -28 40 -62 l35 -63 -5 -522 -5 -522 -25 37
c-13 20 -38 55 -55 77 l-30 39 -5 376 -5 375 -116 3 c-105 2 -117 1 -134 -18
-23 -25 -47 -26 -70 0 -16 18 -31 20 -142 20 l-123 0 0 -181 c0 -169 -1 -181
-17 -174 -10 4 -37 14 -60 22 l-43 15 0 230 c0 228 0 231 26 289 15 33 30 59
33 59 4 0 29 -37 57 -82z m2029 -753 c146 -285 244 -474 265 -510 31 -53 120
-223 120 -228 0 -2 -98 -7 -217 -10 -235 -5 -348 -21 -560 -76 -127 -34 -299
-102 -420 -166 -46 -24 -83 -41 -83 -38 0 5 43 78 79 133 13 20 7 18 -44 -17
-128 -87 -214 -175 -316 -326 l-59 -88 0 424 0 424 63 89 c162 229 348 367
664 493 114 45 385 123 394 113 3 -4 55 -101 114 -217z m-2309 171 c218 -64
444 -169 579 -268 101 -75 231 -210 298 -309 l58 -85 -2 -418 c-1 -230 -5
-414 -8 -409 -4 4 -29 40 -56 78 -102 147 -182 233 -288 312 -89 65 -108 74
-74 33 26 -30 77 -121 77 -135 0 -4 -13 3 -30 15 -53 38 -253 129 -360 164
-220 71 -447 106 -708 106 l-184 0 45 83 c24 45 69 129 100 187 30 58 97 186
150 285 52 99 120 231 151 294 l57 113 39 -6 c21 -3 91 -21 156 -40z m-406
-57 c0 -7 -26 -62 -59 -123 -127 -241 -359 -670 -451 -836 -154 -277 -203
-371 -197 -377 4 -3 59 1 124 8 150 18 575 18 698 1 112 -16 348 -63 357 -71
4 -3 -127 -7 -290 -7 -188 -1 -361 -7 -472 -18 -227 -21 -456 -56 -438 -67 7
-5 200 -9 428 -9 441 0 897 -13 1045 -31 78 -9 106 -18 221 -73 72 -35 134
-67 137 -72 4 -8 -1475 -9 -2020 -1 l-182 2 28 45 c58 94 262 452 483 850 111
199 188 340 374 680 l52 95 73 6 c41 3 77 6 82 7 4 1 7 -3 7 -9z m3033 -106
c35 -65 156 -284 267 -488 320 -584 504 -911 582 -1035 l29 -45 -1108 -5
c-609 -3 -1110 -4 -1112 -3 -8 5 242 123 290 137 86 25 351 36 986 43 326 3
591 9 588 13 -25 40 -676 95 -1042 89 -105 -2 -190 -2 -188 0 12 11 309 63
439 77 175 19 542 14 686 -10 47 -7 86 -13 87 -12 1 1 -18 38 -43 81 -131 229
-421 765 -599 1107 l-82 157 66 4 c36 2 71 4 77 5 7 1 41 -51 77 -115z m-3013
-893 c478 -36 877 -185 1100 -410 72 -73 140 -163 116 -154 -9 3 -16 10 -16
14 0 5 -21 22 -47 39 -75 49 -96 64 -119 89 -12 12 -26 22 -31 22 -6 0 -16 7
-23 15 -7 9 -15 13 -18 11 -3 -3 -17 3 -31 13 -28 19 -137 71 -149 71 -4 0 25
-19 63 -41 175 -101 440 -298 423 -314 -2 -3 -33 15 -69 40 -323 223 -635 348
-1014 407 -116 17 -186 21 -407 22 l-267 0 41 76 c23 41 45 80 50 87 17 21
207 27 398 13z m3163 -10 c8 -8 33 -50 57 -93 l42 -79 -168 7 c-545 23 -1093
-131 -1491 -416 -45 -33 -85 -59 -89 -59 -28 0 178 169 298 245 54 34 58 40
26 42 -18 2 -20 0 -8 -7 12 -8 10 -10 -10 -11 -14 -1 -32 -2 -40 -3 -8 -1 -15
-8 -15 -16 0 -8 -6 -15 -12 -15 -17 0 -91 -57 -163 -127 l-60 -57 23 40 c38
69 164 196 250 253 317 209 730 318 1194 313 121 -2 155 -5 166 -17z m-1685
-696 c43 -18 88 -58 108 -96 24 -47 15 -53 -23 -16 -61 58 -98 73 -183 73 -83
0 -117 -14 -169 -66 -37 -36 -49 -33 -28 8 21 38 65 79 107 97 46 20 141 20
188 0z"/>
<path d="M4379 3355 c18 -8 36 -15 40 -15 13 1 -45 29 -59 29 -8 0 0 -6 19
-14z"/>
<path d="M4430 3326 c0 -2 7 -7 16 -10 8 -3 12 -2 9 4 -6 10 -25 14 -25 6z"/>
<path d="M5615 3278 c-11 -7 -27 -18 -35 -26 -13 -13 -13 -14 0 -9 8 4 23 10
32 13 9 3 19 12 22 20 6 17 7 17 -19 2z"/>
<path d="M2998 7972 c-40 -27 -67 -66 -84 -123 -18 -59 -33 -52 -34 16 0 22
-5 47 -10 55 -9 13 -13 12 -26 -5 -49 -63 -59 -97 -59 -206 0 -77 4 -111 14
-123 16 -19 15 -21 -44 -53 -16 -9 -33 -21 -37 -27 -16 -25 -18 5 -2 36 19 36
34 238 17 238 -16 0 -83 -61 -97 -88 -7 -15 -19 -52 -26 -82 l-13 -55 -17 63
c-10 35 -20 65 -23 68 -10 10 -56 -82 -68 -136 -10 -45 -9 -72 6 -156 l17
-101 112 -6 c145 -9 188 3 285 81 l24 20 -32 16 c-26 14 -30 20 -20 32 6 8 15
14 20 14 4 0 24 10 44 22 43 25 38 30 -48 48 -39 8 -60 18 -68 32 -10 19 -9
20 33 14 150 -20 174 -19 230 6 30 14 69 38 88 55 19 16 55 44 79 61 28 21 39
33 30 36 -8 3 -50 14 -93 25 -43 11 -82 25 -86 32 -6 9 -14 8 -31 -5 -13 -9
-36 -16 -51 -16 l-27 0 18 33 c21 36 34 188 16 193 -5 2 -22 -4 -37 -14z"/>
<path d="M7174 7918 c4 -40 16 -92 26 -115 10 -24 16 -43 12 -43 -4 1 -26 5
-50 9 -32 6 -63 3 -135 -16 -50 -14 -95 -28 -99 -31 -9 -9 141 -132 189 -155
43 -20 132 -18 238 6 69 16 72 21 74 137 1 86 -10 134 -42 180 -34 51 -45 48
-52 -15 l-8 -57 -28 60 c-19 39 -42 68 -67 86 -60 41 -66 37 -58 -46z"/>
<path d="M7480 7702 c0 -54 6 -106 15 -132 8 -24 14 -45 12 -46 -2 -2 -22 6
-46 18 -26 12 -46 17 -49 11 -4 -5 -44 -18 -90 -28 -46 -10 -85 -22 -87 -26
-3 -4 19 -21 49 -38 69 -39 75 -49 36 -62 l-31 -11 27 -30 c16 -16 51 -40 79
-53 46 -22 60 -24 174 -20 68 2 128 8 133 13 5 5 15 55 21 111 9 79 8 112 -2
149 -14 54 -51 132 -62 132 -8 0 -29 -86 -30 -123 0 -21 -1 -21 -8 -2 -5 11
-11 41 -15 67 -8 54 -49 115 -95 141 l-31 18 0 -89z"/>
<path d="M7781 7448 c-17 -58 -21 -111 -12 -173 5 -33 8 -61 6 -63 -1 -1 -23
10 -49 24 -45 25 -51 26 -142 19 -51 -4 -96 -11 -99 -15 -3 -5 20 -30 51 -56
55 -47 56 -48 33 -58 -13 -6 -26 -11 -28 -13 -7 -5 23 -35 68 -66 41 -28 57
-32 146 -39 55 -4 113 -9 129 -10 29 -3 30 -1 53 82 18 65 23 102 20 155 -5
75 -32 158 -51 152 -6 -2 -16 -28 -22 -58 l-11 -54 -11 64 c-10 53 -51 141
-66 141 -3 0 -9 -15 -15 -32z"/>
<path d="M2385 7427 c-14 -24 -25 -57 -25 -73 0 -16 -4 -36 -10 -44 -7 -11
-12 -3 -22 33 -6 26 -16 47 -20 47 -16 0 -49 -83 -55 -140 -4 -45 0 -83 17
-154 28 -116 31 -122 59 -106 12 6 66 15 119 19 103 8 139 21 197 72 36 32 38
49 4 49 -33 0 -21 24 33 64 46 35 50 40 31 47 -11 4 -57 11 -101 14 -72 7 -83
5 -110 -14 -37 -26 -57 -28 -46 -3 21 43 -5 232 -32 232 -7 0 -25 -20 -39 -43z"/>
<path d="M5807 7377 l-35 -81 29 -18 c16 -10 32 -18 34 -18 11 0 86 163 78
170 -4 4 -22 12 -39 18 l-31 10 -36 -81z"/>
<path d="M4338 7438 c-16 -5 -28 -14 -28 -20 0 -6 16 -44 35 -85 29 -62 38
-74 53 -68 9 4 25 10 35 12 9 3 17 11 17 17 0 18 -68 156 -77 155 -4 0 -20 -5
-35 -11z"/>
<path d="M3852 7200 c-12 -12 -22 -26 -22 -33 1 -7 29 -43 63 -81 l63 -68 28
24 28 24 -67 77 c-37 42 -68 77 -69 77 -1 0 -12 -9 -24 -20z"/>
<path d="M6277 7143 c-62 -72 -65 -79 -50 -95 9 -10 23 -18 31 -18 20 0 131
120 132 141 0 15 -29 49 -42 49 -3 0 -35 -35 -71 -77z"/>
<path d="M5670 7108 c-72 -154 -82 -208 -33 -177 17 10 143 228 143 247 0 8
-43 32 -56 32 -3 0 -27 -46 -54 -102z"/>
<path d="M4463 7190 c-13 -5 -23 -13 -23 -17 0 -4 28 -60 63 -123 60 -111 85
-136 109 -112 11 11 -100 262 -116 261 -6 0 -21 -4 -33 -9z"/>
<path d="M2175 7146 c-9 -13 -21 -51 -27 -85 l-12 -62 -19 31 c-10 16 -22 28
-27 25 -27 -17 -16 -205 16 -267 31 -61 156 -86 255 -53 56 19 146 94 127 106
-7 5 -28 9 -46 9 l-33 0 55 57 c65 67 59 76 -41 62 -64 -9 -111 -26 -149 -54
-21 -15 -21 -15 -26 73 -4 58 -12 104 -26 135 -12 26 -23 47 -26 47 -3 0 -13
-11 -21 -24z"/>
<path d="M7999 7143 c-17 -43 -39 -154 -39 -195 l0 -37 -55 29 c-57 30 -147
47 -191 36 l-27 -7 57 -58 c55 -55 56 -59 34 -64 -13 -4 -34 -7 -47 -7 -25 0
-24 0 9 -35 76 -78 181 -104 282 -69 61 20 79 42 95 117 15 73 17 193 3 202
-5 3 -17 -9 -26 -27 l-17 -33 -13 67 c-20 105 -44 135 -65 81z"/>
<path d="M3532 6987 c-12 -13 -22 -26 -22 -30 0 -6 102 -87 419 -335 171 -135
158 -127 176 -112 8 7 15 18 15 25 0 21 -531 475 -556 475 -6 0 -20 -10 -32
-23z"/>
<path d="M6593 6961 c-32 -27 -78 -67 -101 -88 l-44 -38 25 -23 c31 -29 36
-27 158 74 l91 76 -23 24 c-12 13 -28 24 -35 24 -7 0 -39 -22 -71 -49z"/>
<path d="M4046 6985 c-10 -8 -24 -16 -30 -18 -17 -6 258 -327 280 -327 6 0 17
6 23 13 8 11 -12 43 -93 148 -158 202 -157 201 -180 184z"/>
<path d="M6055 6877 c-167 -202 -170 -206 -151 -225 15 -15 19 -13 52 18 39
39 247 277 252 288 1 4 -10 15 -25 24 l-28 16 -100 -121z"/>
<path d="M1936 6792 c-31 -60 -46 -159 -36 -232 17 -119 46 -186 84 -196 40
-10 154 13 199 40 23 13 71 55 107 91 l65 67 -83 -7 c-72 -6 -144 -20 -214
-41 -15 -4 -18 1 -18 33 0 52 -23 138 -58 215 l-29 63 -17 -33z"/>
<path d="M8212 6743 c-31 -65 -37 -91 -41 -156 -3 -68 -5 -77 -20 -72 -45 18
-133 36 -205 42 l-80 6 31 -39 c90 -113 164 -155 269 -156 78 0 94 11 119 85
29 87 31 201 5 286 -13 39 -27 74 -32 77 -4 3 -25 -30 -46 -73z"/>
<path d="M6360 6773 c-25 -17 -128 -105 -224 -191 -40 -35 -48 -47 -40 -60 6
-9 15 -17 20 -19 8 -3 304 222 304 232 0 13 -21 55 -28 55 -4 0 -19 -8 -32
-17z"/>
<path d="M8392 6525 c-50 -57 -116 -208 -108 -248 6 -31 3 -30 -49 9 -16 12
-58 30 -92 38 -34 9 -70 19 -80 23 -14 6 -14 2 5 -24 12 -17 26 -42 32 -57 10
-28 10 -28 -55 -30 -11 -1 -21 -5 -23 -9 -5 -13 98 -134 137 -161 20 -14 76
-35 124 -46 48 -12 94 -23 101 -26 9 -3 26 17 48 58 78 141 89 236 43 404 -15
55 -30 103 -34 107 -5 5 -26 -13 -49 -38z"/>
<path d="M1764 6543 c-4 -10 -12 -32 -20 -49 -30 -68 -46 -158 -42 -230 4 -59
13 -87 47 -157 23 -47 49 -91 57 -98 11 -9 28 -9 77 1 112 23 162 47 215 103
59 61 102 112 102 121 0 3 -22 6 -50 6 -29 0 -50 5 -50 11 0 15 20 51 42 75
19 21 19 21 -9 17 -83 -14 -165 -47 -193 -79 -16 -19 -31 -34 -34 -34 -3 0 0
15 5 32 15 55 10 83 -31 164 -38 78 -81 134 -101 134 -5 0 -12 -8 -15 -17z"/>
<path d="M1584 6103 c-13 -47 -19 -99 -19 -168 1 -120 16 -160 98 -257 l56
-65 92 32 c106 37 155 73 205 151 40 62 42 74 12 74 -37 0 -55 16 -42 37 5 10
20 35 33 56 21 35 22 37 4 37 -32 0 -126 -31 -161 -52 -19 -12 -46 -38 -62
-59 l-28 -39 -4 68 c-3 57 -9 75 -38 117 -38 56 -109 135 -120 135 -4 0 -16
-30 -26 -67z"/>
<path d="M8543 6118 c-65 -70 -123 -174 -123 -222 l0 -38 -32 43 c-18 23 -49
50 -68 60 -38 19 -151 51 -158 45 -2 -2 12 -28 32 -58 20 -29 36 -56 36 -60 0
-4 -18 -12 -40 -18 l-41 -11 27 -48 c45 -83 98 -126 204 -166 l95 -36 58 63
c86 94 112 153 112 258 0 83 -29 240 -45 240 -4 0 -29 -24 -57 -52z"/>
<path d="M1488 5754 c-3 -2 -3 -21 -1 -42 2 -20 -1 -46 -8 -58 -7 -15 -10 -55
-7 -116 6 -121 31 -172 127 -257 l70 -62 88 42 c48 22 103 55 121 73 31 28
102 151 102 176 0 5 -20 10 -45 10 -44 0 -45 1 -39 28 4 15 15 41 25 58 25 42
25 43 -16 34 -47 -11 -145 -59 -145 -71 0 -5 -11 -14 -25 -19 -15 -6 -28 -21
-34 -42 -9 -31 -9 -32 -10 -6 -2 43 -16 71 -69 135 -51 61 -125 126 -134 117z"/>
<path d="M8583 5636 c-83 -84 -114 -109 -118 -97 -9 30 -155 111 -200 111 -12
0 -8 -13 15 -53 16 -30 30 -59 30 -65 0 -7 -17 -12 -45 -12 -25 0 -45 -2 -45
-5 0 -15 72 -146 95 -174 15 -17 59 -47 98 -66 40 -20 79 -41 89 -47 30 -22
180 110 214 189 27 62 19 333 -10 333 -6 0 -62 -51 -123 -114z"/>
<path d="M1440 5300 c0 -35 22 -83 54 -119 21 -24 6 -20 -25 6 -24 20 -28 1
-18 -76 15 -105 50 -152 182 -239 l48 -32 79 60 c44 33 90 75 104 93 32 42 65
116 66 145 0 19 -5 22 -39 22 -39 0 -39 1 -32 28 5 16 16 43 25 61 10 18 16
34 14 36 -2 2 -35 -10 -75 -26 -49 -21 -84 -44 -111 -73 l-40 -44 -42 43 c-23
23 -75 66 -116 94 l-74 52 0 -31z"/>
<path d="M8725 5302 c-22 -15 -79 -55 -127 -89 l-87 -61 -25 33 c-25 32 -169
115 -181 104 -3 -3 4 -26 15 -50 29 -65 27 -79 -15 -79 -30 0 -35 -3 -35 -22
0 -24 49 -131 72 -158 20 -24 156 -130 165 -129 26 1 182 119 206 157 30 44
55 156 43 188 -6 14 -9 13 -31 -10 -25 -27 -42 -35 -29 -13 4 6 20 28 35 47
21 28 50 112 37 109 -2 0 -21 -12 -43 -27z"/>
<path d="M1826 4910 c-39 -28 -83 -66 -99 -85 -15 -19 -33 -35 -39 -35 -6 0
-31 15 -57 34 -55 40 -111 69 -118 62 -3 -3 8 -34 25 -71 l31 -65 -54 0 c-64
0 -64 -2 -3 -93 45 -67 98 -108 174 -137 66 -24 97 -25 130 -3 61 39 128 184
122 264 -3 38 -6 44 -27 47 -22 3 -23 7 -18 50 2 26 8 55 12 65 11 27 -4 20
-79 -33z"/>
<path d="M8295 4944 c4 -10 12 -36 18 -57 9 -36 8 -40 -18 -61 -27 -22 -28
-25 -22 -87 8 -74 44 -154 93 -206 32 -33 37 -35 78 -30 59 8 144 47 189 86
36 32 107 138 107 160 0 7 -20 11 -50 11 -59 0 -61 7 -25 81 l24 51 -27 -7
c-15 -3 -63 -26 -107 -51 -56 -32 -81 -41 -83 -32 -6 19 -114 120 -152 142
-33 19 -33 19 -25 0z"/>
<path d="M8245 4590 c-3 -5 3 -30 14 -55 44 -99 106 -150 156 -127 33 15 31
28 -4 47 -16 8 -55 44 -87 80 -58 66 -68 73 -79 55z"/>
<path d="M1874 4523 c-38 -38 -78 -73 -89 -80 -19 -10 -19 -12 -3 -28 22 -24
56 -14 101 30 53 51 97 145 69 145 -5 0 -39 -30 -78 -67z"/>
<path d="M1890 4223 c-56 -21 -62 -59 -25 -170 103 -305 243 -583 416 -823 83
-115 95 -130 102 -130 6 0 97 136 97 146 0 4 -22 36 -48 73 -78 105 -124 177
-207 321 -97 168 -152 281 -210 434 -56 149 -72 168 -125 149z"/>
<path d="M8258 4218 c-9 -7 -27 -44 -39 -82 -67 -210 -288 -623 -445 -829 -51
-67 -52 -63 12 -149 19 -27 38 -48 43 -48 14 0 137 168 210 285 80 128 180
326 237 467 48 121 94 269 94 305 0 50 -72 82 -112 51z"/>
<path d="M2953 2625 c-40 -18 -73 -38 -73 -42 0 -26 172 -162 376 -299 136
-90 470 -262 629 -323 259 -100 547 -172 829 -208 182 -23 621 -23 800 1 473
62 982 242 1366 482 110 68 331 233 413 307 l48 44 -80 37 -80 38 -113 -85
c-215 -161 -494 -326 -688 -407 -616 -257 -1245 -328 -1860 -209 -448 87 -826
244 -1230 512 -58 38 -139 96 -181 128 -42 33 -78 59 -80 59 -2 -1 -37 -16
-76 -35z"/>
</g>
</svg>
